<svg aria-hidden="true" style="position: absolute; width: 0; height: 0; overflow: hidden;" version="1.1" xmlns="http://www.w3.org/2000/svg" xmlns:xlink="http://www.w3.org/1999/xlink">
   <defs>
      <symbol id="icon-phone" viewBox="0 0 48 48">
         <path d="M24.078 44.919c4.099 4.11 10.74 4.11 14.839 0 2.551-2.55 3.52-6.080 2.891-9.38 1.080-0.55 2.049-1.19 2.859-1.79 0.090-0.070 0.49-0.35 0.59-0.43 0.451-0.37 0.74-0.93 0.74-1.561 0-0.6-0.26-1.14-0.68-1.5l-8.25-6.8c-0.34-0.28-0.779-0.45-1.26-0.45-0.541 0-1.031 0.21-1.391 0.55-0.141 0.14-1.379 1.41-1.379 1.41-0.861 0.86-2.25 0.86-3.111 0l-8.419-8.43c-0.86-0.86-0.86-2.26 0-3.12l1.37-1.37c0.36-0.36 0.57-0.86 0.57-1.399s-0.21-1.021-0.55-1.38l-7.070-8.54c-0.37-0.44-0.93-0.73-1.55-0.73-0.66 0-1.24 0.32-1.61 0.81l-0.12 0.16c-1.54 2.080-3.55 5.38-3.55 8.48 0 8.54 19.041 27.55 27.5 27.55 0.16 0 0.32-0.010 0.471-0.010 0.15 1.57-0.381 3.189-1.58 4.4-2.15 2.149-5.631 2.149-7.781 0l-13.809-14.19c-2.93-2.93-7.67-2.93-10.6 0s-2.93 7.67 0 10.6l4.53 4.47c0.98 0.971 2.56 0.971 3.54 0 0.97-0.979 0.97-2.56 0-3.539l-4.54-4.461c-0.97-0.979-0.97-2.56 0-3.539 0.98-0.971 2.56-0.971 3.54 0l13.81 14.189z"></path>
      </symbol>
      <symbol id="icon-window" viewBox="0 0 48 48">
         <path d="M26.9 33.37l2.91 2.91c0.959 0.96 2.509 0.96 3.469 0 0.961-0.96 0.961-2.511 0-3.47l-2.899-2.91 2.899-2.9c0 0-10.979-4.69-11.429-4.86-0.24-0.090-0.49-0.14-0.75-0.14-1.16 0-2.1 0.93-2.1 2.080 0 0.27 0.050 0.52 0.14 0.75 0.17 0.43 4.86 11.45 4.86 11.45l2.9-2.91zM0 43c0 2.21 1.79 4 4 4h40c2.21 0 4-1.79 4-4l-0-37c0-2.21-1.79-4-4-4h-40c-2.21 0-4 1.79-4 4v37zM7.2 16h33.6c1.22 0 2.2 0.98 2.2 2.2v21.6c0 1.22-0.98 2.2-2.2 2.2l-33.6-0c-1.22 0-2.2-0.98-2.2-2.2v-21.6c0-1.22 0.98-2.2 2.2-2.2zM5 9.5c0-1.38 1.12-2.5 2.5-2.5s2.5 1.12 2.5 2.5-1.12 2.5-2.5 2.5-2.5-1.12-2.5-2.5zM14 9.5c0-1.38 1.12-2.5 2.5-2.5s2.5 1.12 2.5 2.5-1.12 2.5-2.5 2.5-2.5-1.12-2.5-2.5zM23 9.5c0-1.38 1.12-2.5 2.5-2.5s2.5 1.12 2.5 2.5-1.12 2.5-2.5 2.5-2.5-1.12-2.5-2.5z"></path>
      </symbol>
      <symbol id="icon-shield" viewBox="0 0 48 48">
         <path d="M9.010 11.86v0.14c0.32 8.8 1.96 16.67 2.71 17.439 1.74 2.32 7.13 6.141 10.17 8.061 0.75 0.48 1.39 0.57 2.11 0.59 0.72-0.020 1.359-0.14 2.109-0.59 3.101-1.83 8.561-5.74 10.291-8.061 0.76-0.769 2.28-8.639 2.6-17.439l0.010-0.14c0-0.81-0.52-1.51-1.24-1.77-3.77-1.31-9.29-1.66-13.76-1.66-4.48 0-10 0.35-13.76 1.66-0.721 0.26-1.24 0.96-1.24 1.77zM0 6.090l0.010 0.22c0.51 14.080 2.769 26.46 3.99 27.69 2.8 3.721 11.75 9.5 16.59 12.66 1.15 0.75 2.25 1.311 3.41 1.34 1.16-0.029 2.26-0.59 3.41-1.34 4.84-3.16 13.79-8.939 16.59-12.66 1.22-1.23 3.48-13.61 3.99-27.69l0.010-0.22c0-1.3-0.84-2.43-2-2.84-6.070-2.1-14.78-3.25-22-3.25-7.221 0-15.931 1.15-22 3.25-1.16 0.41-2 1.54-2 2.84zM4.85 9.36c0-1.040 0.67-1.93 1.59-2.26 4.8-1.66 11.85-2.1 17.56-2.1s12.76 0.44 17.561 2.1c0.92 0.33 1.59 1.22 1.59 2.26l-0.011 0.17c-0.41 11.15-2.34 21.27-3.31 22.25-2.221 2.94-9.301 7.659-13.13 10.159-0.91 0.591-1.78 1.041-2.7 1.061-0.92-0.020-1.79-0.47-2.7-1.061-3.83-2.5-10.91-7.219-13.13-10.159-0.97-0.98-2.9-11.1-3.311-22.25l-0.009-0.17z"></path>
      </symbol>
      <symbol id="icon-globe" viewBox="0 0 48 48">
         <path d="M0 24.5c0 12.98 10.52 23.5 23.5 23.5s23.5-10.52 23.5-23.5c0-12.98-10.52-23.5-23.5-23.5s-23.5 10.52-23.5 23.5zM5 24.5c0-1.2 0.11-2.37 0.33-3.5h4.8c-0.090 0.99-0.13 1.99-0.13 3s0.040 2.010 0.13 3h-4.97c-0.11-0.82-0.16-1.65-0.16-2.5zM7.070 16c1.46-2.83 3.63-5.23 6.28-6.97-1.050 2.21-1.87 4.54-2.44 6.97h-3.84zM20.85 6.19l0.15-0.020v9.83h-4.92c0.99-3.58 2.62-6.9 4.77-9.81zM26 6.17l0.14 0.020c2.15 2.91 3.79 6.23 4.78 9.81l-4.92 0v-9.83zM33.64 9.030c2.65 1.74 4.83 4.14 6.29 6.97h-3.85c-0.56-2.43-1.391-4.76-2.44-6.97zM41.67 21c0.22 1.13 0.33 2.3 0.33 3.5 0 0.85-0.061 1.68-0.17 2.5h-4.95c0.080-0.99 0.12-1.99 0.12-3s-0.040-2.010-0.12-3h4.79zM40.42 32c-1.57 3.53-4.21 6.48-7.51 8.43 1.4-2.63 2.47-5.459 3.17-8.43h4.34zM14.090 40.43c-3.3-1.95-5.94-4.9-7.51-8.43h4.34c0.7 2.971 1.77 5.811 3.17 8.43zM15.15 21h5.85v6h-5.85c-0.1-0.99-0.15-1.99-0.15-3s0.050-2.010 0.15-3zM26 21h5.85c0.1 0.99 0.15 1.99 0.15 3s-0.050 2.010-0.15 3h-5.85v-6zM16.080 32h4.92v10c-2.22-2.96-3.91-6.34-4.92-10zM26 32h4.92c-1.010 3.66-2.7 7.040-4.92 10v-10z"></path>
      </symbol>
      <symbol id="icon-search" viewBox="0 0 48 48">
         <path d="M29.652 13.998c2.16 0.5 3.879 2.34 4.379 4.35 0.171 0.94 0.99 1.65 1.971 1.65 1.1 0 2-0.9 2-2 0-1.44-1.21-3.63-2.86-5.27-1.62-1.6-3.55-2.73-5.14-2.73-1.1 0-2 0.93-2 2.030 0 0.979 0.71 1.8 1.65 1.97zM2.162 40.218c-1.55 1.549-1.55 4.070 0 5.619 1.55 1.551 4.070 1.551 5.61 0l11.489-11.48c2.681 1.672 5.84 2.641 9.24 2.641 9.67 0 17.5-7.83 17.5-17.5s-7.83-17.5-17.5-17.5-17.5 7.83-17.5 17.5c0 3.39 0.971 6.56 2.641 9.24l-11.48 11.48zM16.002 19.498c0-6.9 5.601-12.5 12.5-12.5 6.9 0 12.5 5.6 12.5 12.5s-5.6 12.5-12.5 12.5c-6.899-0.001-12.5-5.601-12.5-12.5z"></path>
      </symbol>
      <symbol id="icon-heart" viewBox="0 0 48 48">
         <path d="M24 9.203c-1-3.89-6.080-6.2-10-6.2-7.73 0-14 6-14 14 0 15 14.26 19 22 28 0.069 0.1 0.15 0.181 0.24 0.27 0.979 0.971 2.56 0.971 3.539 0 0.091-0.089 0.15-0.17 0.221-0.27 7.75-9.020 22-12.939 22-28 0-8-6.27-14-14-14-3.92 0-9 2.31-10 6.2zM34.65 12.003c-0.94-0.17-1.65-0.99-1.65-1.97 0-1.1 0.9-2.030 2-2.030 1.59 0 3.52 1.13 5.14 2.73 1.65 1.64 2.86 3.83 2.86 5.27 0 1.1-0.9 2-2 2-0.98 0-1.8-0.71-1.971-1.65-0.5-2.010-2.218-3.85-4.379-4.35z"></path>
      </symbol>
      <symbol id="icon-cloud" viewBox="0 0 48 48">
         <path d="M0 30c0 6.080 4.92 11 11 11h26c6.080 0 11-4.92 11-11 0-4.67-2.91-8.65-7.010-10.25l0.010-0.25c0-6.35-5.15-11.5-11.5-11.5-4.020 0-7.55 2.061-9.61 5.181-1.111-0.75-2.451-1.181-3.89-1.181-3.87 0-7 3.13-7 7v0.181c-5.12 0.939-9 5.429-9 10.819z"></path>
      </symbol>
   </defs>
</svg>